<svg width="26" height="26" viewBox="0 0 26 26" fill="none" xmlns="http://www.w3.org/2000/svg">
<g id="Frame" clip-path="url(#clip0_363_349)">
<g id="Group 9">
<path id="Subtract" fill-rule="evenodd" clip-rule="evenodd" d="M7.80838 0.795898C3.86349 0.795898 0.665527 3.99386 0.665527 7.93876V17.9668C0.665527 21.9117 3.86349 25.1097 7.80838 25.1097H17.6682C21.6131 25.1097 24.811 21.9117 24.811 17.9668V7.93876C24.811 3.99386 21.6131 0.795898 17.6682 0.795898H7.80838ZM7.80838 2.58161C4.84972 2.58161 2.45124 4.98009 2.45124 7.93876V17.9668C2.45124 20.9255 4.84972 23.324 7.80838 23.324H17.6682C20.6268 23.324 23.0253 20.9255 23.0253 17.9668V7.93876C23.0253 4.98009 20.6268 2.58161 17.6682 2.58161H7.80838Z" fill="white"/>
<path id="Subtract_2" fill-rule="evenodd" clip-rule="evenodd" d="M12.7382 19.6487C16.4365 19.6487 19.4346 16.6506 19.4346 12.9523C19.4346 9.25395 16.4365 6.25586 12.7382 6.25586C9.03984 6.25586 6.04175 9.25395 6.04175 12.9523C6.04175 16.6506 9.03984 19.6487 12.7382 19.6487ZM12.7382 17.863C15.4503 17.863 17.6489 15.6644 17.6489 12.9523C17.6489 10.2402 15.4503 8.04157 12.7382 8.04157C10.0261 8.04157 7.82746 10.2402 7.82746 12.9523C7.82746 15.6644 10.0261 17.863 12.7382 17.863Z" fill="white"/>
<path id="Ellipse 6" d="M21.1229 5.5745C21.1229 6.06761 20.7231 6.46735 20.23 6.46735C19.7369 6.46735 19.3372 6.06761 19.3372 5.5745C19.3372 5.08139 19.7369 4.68164 20.23 4.68164C20.7231 4.68164 21.1229 5.08139 21.1229 5.5745Z" fill="white"/>
</g>
</g>
<defs>
<clipPath id="clip0_363_349">
<rect width="25" height="25" fill="white" transform="translate(0.238281 0.452148)"/>
</clipPath>
</defs>
</svg>
