<svg width="26" height="26" viewBox="0 0 26 26" fill="none" xmlns="http://www.w3.org/2000/svg">
<g id="Frame" clip-path="url(#clip0_363_368)">
<path id="Vector" d="M10.3787 16.4919L16.5016 12.9526L10.3787 9.41336V16.4919ZM24.0167 7.2544C24.1701 7.80889 24.2762 8.55213 24.347 9.49594C24.4296 10.4397 24.465 11.2538 24.465 11.9616L24.5358 12.9526C24.5358 15.5363 24.347 17.4357 24.0167 18.6508C23.7217 19.7126 23.0375 20.3969 21.9757 20.6918C21.4212 20.8452 20.4066 20.9514 18.8494 21.0221C17.3157 21.1047 15.9118 21.1401 14.614 21.1401L12.7382 21.2109C7.79505 21.2109 4.71589 21.0221 3.50074 20.6918C2.43896 20.3969 1.7547 19.7126 1.45977 18.6508C1.3064 18.0964 1.20022 17.3531 1.12943 16.4093C1.04685 15.4655 1.01146 14.6515 1.01146 13.9436L0.940674 12.9526C0.940674 10.369 1.12943 8.46955 1.45977 7.2544C1.7547 6.19263 2.43896 5.50837 3.50074 5.21343C4.05523 5.06006 5.06982 4.95388 6.62709 4.8831C8.16078 4.80051 9.56468 4.76512 10.8624 4.76512L12.7382 4.69434C17.6814 4.69434 20.7606 4.8831 21.9757 5.21343C23.0375 5.50837 23.7217 6.19263 24.0167 7.2544Z" fill="white"/>
</g>
<defs>
<clipPath id="clip0_363_368">
<rect width="25" height="25" fill="white" transform="translate(0.238281 0.452148)"/>
</clipPath>
</defs>
</svg>
